<svg width="285" height="256" viewBox="0 0 285 256" fill="none" xmlns="http://www.w3.org/2000/svg">
  <path d="m184.07 117.5 11-26h66s-8.422 5.26-12 10c-4.056 5.374-9 16-9 16z" fill="#bddd2f" stroke="#bddd2f"/>
  <path d="m96.509 190.739-6 11-.152.279-.316-.019h-.003l-.01-.001-.04-.002-.158-.01-.61-.035-2.268-.129c-1.927-.109-4.622-.258-7.688-.42-6.135-.324-13.756-.699-19.71-.902-9.454-.323-21.82-.323-31.828-.242a1622 1622 0 0 0-16.295.216l-1.002.019-.26.005-.067.001-.016.001h-.005l-.088-.994h.001l.004-.001.017-.002.063-.011.252-.039.97-.15a1562 1562 0 0 1 15.794-2.354c9.7-1.393 21.71-3.019 30.926-3.946 7.413-.746 16.919-1.497 24.568-2.061 3.825-.282 7.188-.516 9.594-.681 1.203-.083 2.166-.147 2.83-.192l.761-.05.198-.013.05-.004.012-.001h.005l.906-.059zm15.009-24.015-7 14-.145.29-.324-.014-.001-.001h-.015l-.229-.01-.705-.03-2.622-.111-8.871-.379c-7.065-.302-15.815-.676-22.557-.969-13.355-.58-30.598-.831-44.506-.936a2602 2602 0 0 0-23.99-.066l-.359.002H.072L0 177.505h.002l.004-.001.018-.003.075-.01.29-.041 1.122-.158a2449 2449 0 0 1 18.246-2.485c11.21-1.483 25.092-3.234 35.763-4.304 10.825-1.085 24.705-2.212 35.875-3.065a3217 3217 0 0 1 18.143-1.333l1.112-.077.288-.02.074-.005.017-.001.005-.001h.002l.873-.06zm13.987-23.976-8 14-.156.273-.313-.022h-.001l-.004-.001-.015-.001-.062-.004-.243-.016-.94-.064-3.496-.234c-2.971-.199-7.125-.475-11.852-.783-9.454-.618-21.202-1.369-30.381-1.897-9.562-.55-21.811-1.175-31.67-1.662a8606 8606 0 0 0-16.985-.821l-.254-.012-.065-.004h-.02l-.001-.001-.022-.997h.006l.017-.002.067-.006.268-.024 1.03-.094 3.83-.346c3.256-.293 7.808-.701 12.988-1.161 10.36-.919 23.236-2.044 33.298-2.867 10.249-.839 23.375-1.84 33.939-2.63 5.282-.395 9.924-.737 13.245-.981l3.905-.287 1.052-.077.271-.019.07-.005.017-.001.004-.001h.002l.936-.067z" fill="#bddd2f"/>
  <path d="M312.07 58.706c3.68 5.436 8.5 14.5 8.5 14.5s-6.193-6.91-10.5-11c-4.116-3.908-6.403-6.17-11-9.5-3.905-2.829-6.244-4.23-10.5-6.5-4.164-2.22-6.601-3.29-11-5l-.189-.073c-4.661-1.811-7.367-2.863-12.311-3.927-5.755-1.238-9.113-1.47-15-1.5-5.091-.025-7.97.206-13 1-4.958.784-7.753 1.367-12.5 3-4.874 1.677-7.583 3.203-12 5.5-4.576 2.381-6.845 3.443-11 6.5-4.338 3.193-6.388 5.504-10 9.5-3.639 4.029-5.406 6.54-8.5 11-3.645 5.256-5.588 8.305-8.5 14-3.268 6.393-4.541 10.093-6.5 17-2.049 7.227-2.817 11.52-3.5 19-.675 7.392-.997 11.595-.5 19 .544 8.104 1.307 12.681 3.5 20.5 2.155 7.681 7.5 19 7.5 19s6.179 10.44 11 16.5c2.413 3.033 3.813 4.707 6.5 7.5 2.778 2.888 4.379 4.489 7.5 7 5.1 4.104 8.467 5.858 14.185 8.836l.315.164c6.208 3.234 9.729 5.226 16.5 7 6.654 1.744 10.622 1.979 17.5 2 7.073.023 11.603-.433 18.5-2 6.022-1.367 8.829-2.558 14.5-5 5.697-2.453 8.903-3.966 14-7.5 4.892-3.39 11.5-10 11.5-10l11.5-12s-7.484 12.67-13.5 19.5c-6.763 7.679-10.555 11.955-19 17.5-7.299 4.794-11.58 6.862-20 9.5-4.972 1.558-7.877 2.547-13 3.5-5.619 1.046-9.284 1.59-15 1.5-5.136-.08-7.989-.871-13-2-5.784-1.302-8.979-2.338-14.5-4.5-5.855-2.292-9.147-3.7-14.5-7-5.766-3.554-8.689-6.197-13.605-10.642l-.395-.358c-5.224-4.723-8.252-7.382-12.5-13-4.484-5.93-6.199-9.837-9.5-16.5-3.107-6.272-4.736-9.876-7-16.5-2.221-6.498-3.106-10.275-4.5-17-1.759-8.49-2.501-13.329-2.5-22 .001-7.004.537-10.934 1.473-17.799l.027-.201c.751-5.502 1.198-8.601 2.5-14 1.391-5.763 2.548-8.901 4.5-14.5 1.791-5.136 2.672-8.084 5-13 2.509-5.297 4.282-8.101 7.5-13 3.067-4.667 4.898-7.232 8.5-11.5 3.118-3.694 8.5-9 8.5-9s5.99-6.03 10.5-9c3.502-2.306 5.725-3.176 9.5-5 3.464-1.672 5.404-2.636 9-4 3.638-1.379 5.708-2.13 9.5-3 4.226-.968 6.675-1.2 11-1.5 4.481-.309 7.016-.238 11.5 0 3.919.21 6.137.307 10 1 4.383.788 7.25 1.673 11.5 3 3.95 1.234 5.73 1.796 9.5 3.5 5.432 2.457 8.12 4.577 13 8 5.118 3.59 8.093 5.567 12.5 10 4.709 4.737 6.756 7.97 10.5 13.5Z" fill="#bddd2f" stroke="#bddd2f"/>
  <path d="m330.07 117.5 9-26h-66s-4.071 2.243-7.5 4.5c-3.237 2.131-4.867 3.655-7.5 6.5-2.175 2.351-3.19 3.858-5 6.5-2.668 3.896-6 10.5-6 10.5l-27 83h36l28-85z" fill="#000" stroke="#000"/>
  <path d="M199.57 247.211c.025.009 7.217 2.799 12 4 7.071 1.776 18.5 2.5 18.5 2.5-.014.001-8.527.798-14 1-5.854.216-9.148.24-15 .5-2.93.13-7.494 0-7.5 0l-16-7c.009 0 7.63.29 12.5 0 3.72-.221 9.487-.998 9.5-1m-84-58c.024.052 6.216 13.601 11.5 21.5 3.561 5.324 5.814 8.152 10 13 3.521 4.077 9.5 10 9.5 10 .027.025 5.864 5.494 10 8.5 3.55 2.579 5.703 3.8 9.5 6 4.384 2.539 12 6.5 12 6.5s-7.277-.617-11.5-1.5c-4.231-.885-6.546-1.753-10.5-3.5-5.207-2.301-7.8-4.288-12.5-7.5-7.327-5.008-11.365-8.086-17.5-14.5-6.559-6.858-9.482-11.445-14.5-19.5-4.352-6.986-9.977-18.951-10-19zm34 62s-4.285-1.156-7-2c-2.353-.732-5.983-1.994-6-2h5zm-38.5-18c.014.003 4.25.805 7 1 2.725.193 6.993 0 7 0l11.5 9h-10.5zm78.5 9c-.006 0-8.847.14-14.5.5-2.54.162-6.5.5-6.5.5l-12-10h20zm-51.5-35c2.333-1.477 4.5 0 7 1 2.294.917 3.579 1.514 6 2 1.924.386 5 .5 5 .5l14 16c-.013.003-3.943.813-6.5 1-2.337.17-3.709-.494-6 0-2.306.498-5.5 2.5-5.5 2.5s-5.662-5.63-9-9.5c-3.078-3.571-7.477-9.47-7.5-9.5 0 0 .944-3.015 2.5-4m-49 4s4.269-.104 7 0c4.116.156 10.5 1 10.5 1l13.5 16.5-16.5-1.5zm32.5-43c2.5-.5 5 1.5 8.5 3 3.135 1.343 8.5 2 8.5 2 .014.044 2.736 8.67 5 14 2.391 5.626 7 14 7 14l-10-2c-2.5-.5-4.33-.832-6.5.5-2.163 1.328-2.5 5.5-2.5 5.5s-4.915-9.292-7.5-15.5c-2.463-5.915-5.485-15.454-5.5-15.5 0 0 .431-5.486 3-6m12.5-19c0 .035-.042 5.231.5 8.5.496 2.99 2 7.5 2 7.5s-2.999-1.108-5-1.5c-1.924-.378-4.994-.5-5-.5 0 0 2.059-4.305 3.5-7 1.48-2.768 3.984-6.973 4-7m-69-42c.009.001 3.735.295 6 1 4.706 1.464 10.5 7 10.5 7l-.5 22s-5.313-3.395-9-5c-3.39-1.477-8.981-2.995-9-3 0 0 .113-6.717.5-11 .39-4.305 1.494-10.96 1.5-11M183.57.711c4.466-.474 11.5 0 11.5 0-.03.01-13.753 4.599-22 9-7.98 4.259-12.537 7.226-19.5 13-7.017 5.82-10.232 9.94-16 17-5.313 6.504-8.064 10.368-12.5 17.5-4.107 6.603-6.352 10.39-9.5 17.5-3.424 7.735-4.784 12.336-7 20.5-1.985 7.318-2.84 11.507-4 19-1.26 8.141-2 21-2 21l-14 1s-.128-13.963 1-22.5c1.149-8.689 2.452-13.192 4.838-21.44l.162-.56c2.436-8.422 4.446-12.965 7.99-20.976l.01-.024c3.816-8.625 6.691-13.205 12-21 5.605-8.23 9.234-12.694 16.5-19.5 7.412-6.942 11.442-10.533 20-16 7.802-4.984 11.664-7.739 20.5-10.5 4.387-1.37 7.43-2.515 12-3M137.156 106c-.004.024-1.413 7.293-2 12-.581 4.666-1 12-1 12-.051.005-6.468.624-10.5 1.5-4.587.996-11.5 3.5-11.5 3.5 0-.009-.194-6.102 0-10 .195-3.914.998-9.982 1-10 0 0 6.876-5.219 12-7 4.471-1.554 11.945-1.997 12-2M75.57 73.21c.017.005 5.21 1.182 8 3 3.126 2.037 6.5 7 6.5 7l-6.5 25.001s-4.647-3.997-8-6c-3.143-1.878-8.479-3.992-8.5-4 0 0 2.201-8.304 4-13.5 1.574-4.545 4.484-11.462 4.5-11.5m72.586-.21c-.014.033-3.227 7.563-5 12.5-1.731 4.824-4 12.5-4 12.5-.056.003-7.83.434-12.5 2-5.304 1.779-12.5 7-12.5 7s1.506-8.31 3-13.5c1.313-4.56 3.988-11.47 4-11.5 0 0 7.732-5.74 13.5-7.5 5.056-1.542 13.442-1.5 13.5-1.5M90.07 49.21s5.743-1.318 9 0c2.573 1.043 5.5 4.5 5.5 4.5l-11.5 21s-3.134-4.57-6-6.5c-2.612-1.758-7.483-2.995-7.5-3 0 0 2.756-5.663 5-9 1.936-2.875 5.48-6.975 5.5-7M151.656 65c-.058-.004-8.441-.533-13.5 1-5.518 1.672-13 7-13 7s2.923-7.241 5.5-11.5c2.379-3.93 6.973-9.467 7-9.5l22-1zM116.57 35.71l-9 12.5s-2.887-2.396-5-3.5c-2.897-1.512-7.984-2.496-8-2.5l8-9zM163.656 46h-22.5l10.5-12s3.179.319 5.5 0c2.206-.303 4.298-.674 6.5-1 2.704-.4 4.267-.5 7-.5h6.5zM121.57 30.71h-16s5.056-5.704 9-8.5c2.919-2.067 7.978-4.489 8-4.5h14zM177.156 13s15-1.5 23 0 4.5 2.5 4.5 2.5c-.036.014-3.706 1.443-6 2.5-1.982.914-3.093 1.438-5 2.5-3.927 2.188-9.5 6.5-9.5 6.5-.04-.008-4.257-.821-7-1-2.338-.152-3.662-.152-6 0-2.755.18-4.299.427-7 1-2.781.59-7 2-7 2s2.704-2.483 4.5-4c1.91-1.614 3.03-2.46 5-4 2.032-1.587 3.2-2.438 5.25-4zM219.906.5c3.813 0 6.451.183 10.25.5 5.889.49 8.749.643 14.5 2 5.83 1.375 9.042 2.534 14.5 5 5.083 2.296 12.454 6.97 12.5 7-.044-.018-5.723-2.383-9.5-3.5-3.27-.967-5.147-1.379-8.5-2-5.597-1.037-8.807-1.473-14.5-1.5-4.897-.023-7.649.325-12.5 1-4.134.576-10.5 2-10.5 2-.022-.02-2.264-2.128-4-3-2.158-1.084-3.605-1.187-6-1.5-2.71-.355-4.267-.072-7 0-3.324.088-8.5.5-8.5.5s5.335-2.834 9-4c3.978-1.265 6.355-1.514 10.5-2 3.787-.444 5.938-.5 9.75-.5m-53.336.71c-.025.013-7.037 3.315-11.5 5.5-3.921 1.921-10 5-10 5l-12.5-.5s9.857-4.541 16.5-6.5c6.68-1.968 17.481-3.496 17.5-3.5" fill="url(#a)"/>
  <path d="m199.57 247.211.181-.466-.12-.047-.127.017zm12 4-.121.485zm18.5 2.5.047.498-.015-.997zm-14 1-.018-.5zm-15 .5-.022-.5zm-7.5 0-.2.458.089.039.097.003zm-16-7 .019-.5-.219.958zm12.5 0 .03.499zm-74.5-59 .455-.208-.133-.292h-.322zm11.5 21.5-.415.278zm10 13-.378.327zm9.5 10-.352.355.01.01zm10 8.5-.294.404zm9.5 6 .251-.433zm12 6.5-.042.498.273-.942zm-11.5-1.5.103-.489zm-10.5-3.5-.202.457zm-12.5-7.5.282-.413zm-17.5-14.5-.361.346zm-14.5-19.5-.424.264zm-10-19v-.5h-.787l.335.713zm48 62-.13.483.354-.93zm-7-2-.148.477zm-6-2v-.5l-.164.972zm5 0 .224-.447-.106-.053h-.118zm-30.5-14 .093-.491-.37.907zm7 1 .036-.499zm7 0 .308-.394-.145-.114-.185.008zm11.5 9v.5h1.45l-1.142-.894zm-10.5 0-.277.416.126.084h.151zm63.5-1 .008.5 1.557-.025-1.28-.886zm-14.5.5.032.499zm-6.5.5-.32.384.158.132.205-.018zm-12-10v-.5h-1.381l1.061.884zm20 0 .285-.411-.128-.089h-.157zm-38.5-26-.267-.423zm7 1 .186-.464zm6 2-.098.49zm5 .5.377-.329-.143-.163-.215-.008zm14 16 .101.49.84-.174-.564-.645zm-6.5 1 .037.499zm-6 0-.105-.489zm-5.5 2.5-.352.355.281.28.337-.211zm-9-9.5.379-.327zm-7.5-9.5-.477-.149-.076.243.152.205zm-46.5 0-.012-.5-1.092.027.734.809zm7 0 .02-.5zm10.5 1 .387-.317-.125-.153-.196-.026zm13.5 16.5-.045.498 1.187.108-.755-.923zm-16.5-1.5-.37.336.131.144.194.018zm18-59-.098-.49zm8.5 3-.197.46zm8.5 2 .477-.15-.097-.307-.319-.039zm5 14-.46.195zm7 14-.098.49 1.055.211-.519-.942zm-16.5-1.5-.261-.426zm-2.5 5.5-.442.234.803 1.516.138-1.71zm-7.5-15.5-.461.192zm-5.5-15.5-.498-.039-.008.097.03.093zm15.5-25 .5.004.016-1.846-.945 1.586zm.5 8.5-.493.082zm2 7.5-.173.469.977.361-.329-.988zm-5-1.5.097-.491zm-5-.5-.451-.216-.327.685.758.031zm3.5-7-.441-.236zm-65-49 .04-.499-.458-.036-.075.453zm6 1 .149-.477zm10.5 7 .5.011.005-.22-.16-.153zm-.5 22-.269.421.749.479.02-.889zm-9-5 .2-.458zm-9-3-.5-.008-.006.389.375.101zm.5-11-.498-.045zm120-117.5-.052-.497zm11.5 0 .159.474-.125-.973zm-22 9-.235-.441zm-19.5 13-.319-.385zm-16 17-.387-.316zm-12.5 17.5-.424-.264zm-9.5 17.5-.457-.203zm-7 20.5-.482-.131zm-4 19-.494-.077zm-2 21 .036.499.438-.032.025-.438zm-14 1-.5.005.005.532.53-.038zm1-22.5-.495-.066zm4.838-21.44.48.14zm.162-.56-.48-.139zm7.99-20.976.457.203v-.001zm.01-.024-.457-.202zm12-21-.413-.282zm16.5-19.5-.341-.365zm20-16-.269-.421zm20.5-10.5-.149-.477zM137.156 106l.491.095.123-.632-.643.038zm-2 12-.496-.062zm-1 12 .048.498.427-.041.024-.428zm-10.5 1.5-.106-.489zm-11.5 3.5-.499.016.021.689.649-.235zm0-10-.499-.025zm1-10-.302-.398-.166.126-.027.206zm12-7-.164-.472zM75.57 73.21l.11-.487-.408-.092-.163.386zm8 3 .273-.418zm6.5 7 .484.127.057-.22-.127-.187zm-6.5 25.001-.326.379.608.523.202-.776zm-8-6 .257-.429zm-8.5-4-.483-.128-.114.43.413.163zm4-13.5-.472-.164zM148.156 73l.46.196.296-.692-.753-.004zm-5 12.5-.47-.169zm-4 12.5.028.5.352-.02.1-.338zm-12.5 2-.159-.474zm-12.5 7-.492-.089-.222 1.225 1.008-.731zm3-13.5-.48-.138zm4-11.5-.298-.401-.116.086-.052.135zm13.5-7.5-.146-.478zM90.07 49.21l-.112-.486-.159.036-.107.124zm9 0 .188-.462zm5.5 4.5.439.241.165-.301-.222-.262zm-11.5 21-.412.284.46.67.39-.713zm-6-6.5.28-.414zm-7.5-3-.45-.218-.268.552.595.152zm5-9-.414-.278zM151.656 65l-.031.499.311.02.154-.27zm-13.5 1-.145-.478zm-13 7-.463-.187-.641 1.587 1.394-.993zm5.5-11.5-.428-.259zm7-9.5-.022-.5-.221.01-.141.17zm22-1 .434.248.451-.789-.907.041zM116.57 35.71l.406.293.464-.645-.782-.14zm-9 12.5-.319.386.412.342.313-.435zm-5-3.5.232-.442zm-8-2.5-.373-.331-.584.656.862.167zm8-9 .088-.491-.275-.05-.186.21zM163.656 46v.5h.207l.147-.146zm-22.5 0-.376-.33-.726.83h1.102zm10.5-12 .05-.498-.256-.025-.17.194zm5.5 0 .068.495zm6.5-1-.073-.495zm7-.5V32zm6.5 0 .354.354.853-.854h-1.207zm-55.586-1.79v.5h.187l.141-.121zm-16 0-.374-.33-.737.83h1.111zm9-8.5-.289-.407zm8-4.5v-.5h-.113l-.103.05zm14 0 .328.379 1.013-.878h-1.341zM177.156 13l-.05-.498-.14.015-.113.085zm23 0 .092-.491zm4.5 2.5-.137-.48-.022.006-.022.008zm-6 2.5.21.454zm-5 2.5-.243-.437zm-9.5 6.5-.095.49.222.044.179-.139zm-7-1 .033-.499zm-6 0-.032-.499zm-7 1-.104-.49zm-7 2-.338-.368.497.842zm4.5-4-.322-.382zm5-4 .308.394zm5.25-4 .303.398zm48-16.5V0zm10.25.5.042-.498zm14.5 2 .115-.487zm14.5 5 .206-.456zm12.5 7-.192.462.46-.884zm-9.5-3.5.142-.48zm-8.5-2 .091-.492zm-14.5-1.5.003-.5zm-12.5 1-.069-.495zm-10.5 2-.342.364.193.182.258-.058zm-4-3 .225-.447zm-6-1.5.065-.496zm-7 0-.013-.5zm-8.5.5-.234-.442.274.94zm9-4-.151-.476zm10.5-2 .058.497zm-43.586.21.213.453-.283-.947zm-11.5 5.5-.22-.448zm-10 5-.02.5.13.006.116-.059zm-12.5-.5-.209-.453.189.954zm16.5-6.5-.141-.479zm50.5 242.501-.18.466c.018.007 7.24 2.809 12.059 4.019l.121-.485.122-.485c-4.747-1.193-11.911-3.97-11.941-3.981zm12 4-.121.485c3.57.897 8.224 1.525 11.969 1.928a177 177 0 0 0 6.112.551l.377.026.098.007.025.001.006.001h.003l.031-.499.032-.499h-.002l-.006-.001-.024-.001-.096-.007-.373-.025a183 183 0 0 1-6.076-.548c-3.737-.403-8.333-1.025-11.833-1.904zm18.5 2.5-.046-.498c-.017.002-8.516.797-13.972.998l.018.5.019.5c5.489-.203 14.017-1.001 14.028-1.002zm-14 1-.018-.5c-5.835.215-9.155.241-15.004.5l.022.5.022.499c5.856-.259 9.124-.283 14.997-.499zm-15 .5-.022-.5c-2.909.13-7.454 0-7.463 0l-.015.5-.014.5c.002 0 4.584.13 7.536-.001zm-7.5 0 .201-.458-16-7-.201.458-.2.458 16 7zm-16-7-.019.5c.004 0 7.65.291 12.549-.001l-.03-.499-.029-.499c-4.842.288-12.438 0-12.452-.001zm12.5 0 .03.499c3.741-.223 9.527-1.002 9.537-1.004l-.067-.495-.066-.496c-.018.003-5.766.777-9.463.997zm-74.5-59-.454.208c.02.045 6.228 13.631 11.539 21.57l.415-.278.416-.278c-5.258-7.86-11.434-21.37-11.461-21.43zm11.5 21.5-.415.278c3.575 5.345 5.841 8.189 10.037 13.049l.378-.327.379-.327c-4.176-4.837-6.416-7.648-9.963-12.951zm10 13-.378.327c1.77 2.05 4.154 4.559 6.09 6.55.969.997 1.828 1.866 2.444 2.486l.727.729.197.195.051.051.013.013.003.003.001.001.352-.355.352-.355v-.001h-.001l-.003-.003-.013-.013-.05-.05-.195-.195-.725-.725c-.614-.618-1.47-1.484-2.436-2.478-1.934-1.989-4.3-4.48-6.05-6.507zm9.5 10-.342.365c.022.02 5.882 5.512 10.048 8.539l.294-.404.294-.405c-4.107-2.984-9.921-8.431-9.952-8.46zm10 8.5-.294.404c3.573 2.597 5.747 3.829 9.544 6.029l.25-.433.251-.433c-3.797-2.2-5.93-3.409-9.457-5.972zm9.5 6-.25.433c2.199 1.274 5.206 2.902 7.659 4.21a511 511 0 0 0 4.024 2.125l.25.13.064.034.017.009.004.002h.002l.23-.443.231-.444h-.001l-.004-.003-.017-.008-.064-.034-.249-.129-.922-.483a606 606 0 0 1-3.095-1.638c-2.451-1.307-5.445-2.929-7.628-4.194zm12 6.5.043-.498h-.002l-.003-.001-.016-.001-.061-.005-.237-.021c-.206-.019-.506-.046-.879-.082-.746-.072-1.785-.176-2.955-.308-2.346-.264-5.201-.637-7.287-1.073l-.103.489-.102.489c2.136.447 5.031.824 7.38 1.089a167 167 0 0 0 4.096.413l.062.005.016.002h.006zm-11.5-1.5.103-.489c-4.186-.876-6.468-1.731-10.401-3.468l-.202.457-.202.457c3.974 1.756 6.324 2.639 10.6 3.532zm-10.5-3.5.202-.457c-5.156-2.279-7.707-4.235-12.42-7.456l-.282.413-.282.413c4.687 3.203 7.322 5.221 12.58 7.544zm-12.5-7.5.282-.413c-7.31-4.997-11.318-8.052-17.42-14.433l-.362.346-.361.346c6.167 6.447 10.235 9.547 17.579 14.567zm-17.5-14.5.362-.346c-6.523-6.819-9.424-11.371-14.437-19.418l-.425.264-.424.264c5.022 8.062 7.967 12.685 14.563 19.582zm-14.5-19.5.425-.264c-4.334-6.957-9.946-18.894-9.972-18.949l-.453.213-.452.213c.02.043 5.658 12.036 10.028 19.051zm-10-19v.5h14v-1h-14zm48 62 .13-.483-.003-.001-.009-.002-.036-.01-.14-.038-.522-.142c-.443-.121-1.063-.292-1.767-.489a180 180 0 0 1-4.504-1.312l-.149.477-.148.477c1.364.425 3.12.926 4.532 1.321.706.198 1.328.369 1.772.49l.524.143.187.051h.002l.001.001zm-7-2 .149-.477c-2.344-.729-5.966-1.989-5.984-1.995l-.165.472-.164.472c.015.005 3.653 1.271 6.016 2.005zm-6-2v.5h5v-1h-5zm5 0-.223.447 8 4 .223-.447.224-.447-8-4zm-30.5-14-.093.491c.008.002 4.274.811 7.058 1.008l.035-.499.036-.499c-2.716-.192-6.923-.989-6.943-.992zm7 1-.035.499c2.759.195 7.057 0 7.058 0l-.023-.499-.022-.5c-.013.001-4.252.191-6.942.001zm7 0-.308.394 11.5 9 .308-.394.308-.394-11.5-9zm11.5 9v-.5h-10.5v1h10.5zm-10.5 0 .278-.416-15-10-.278.416-.277.416 15 10zm63.5-1-.008-.5c-.003 0-8.857.14-14.523.501l.031.499.032.499c5.639-.36 14.468-.499 14.476-.499zm-14.5.5-.031-.499c-1.275.081-2.903.206-4.211.311l-2.125.175-.13.011-.034.003h-.008l-.002.001h-.001l.042.498.043.498h.003l.008-.001.034-.003.129-.011.483-.04c.411-.034.984-.082 1.637-.134 1.307-.105 2.929-.229 4.195-.31zm-6.5.5.32-.384-12-10-.32.384-.32.384 12 10zm-12-10v.5h20v-1h-20zm20 0-.284.411 13 9 .284-.411.285-.411-13-9zm-38.5-26 .268.422c1.015-.643 1.986-.653 3.039-.368.537.145 1.088.365 1.674.619.576.249 1.201.538 1.834.791l.185-.464.186-.464c-.617-.247-1.2-.518-1.807-.781-.596-.258-1.201-.502-1.811-.667-1.239-.334-2.518-.345-3.835.489zm7 1-.185.464c2.278.912 3.611 1.53 6.087 2.026l.098-.49.099-.49c-2.367-.475-3.605-1.051-5.913-1.974zm6 2-.098.49c.993.199 2.269.326 3.282.403a50 50 0 0 0 1.658.101l.103.004.027.001h.007l.002.001h.001l.018-.5.019-.5h-.008l-.026-.001-.099-.004-.37-.018a57 57 0 0 1-1.256-.081c-1.006-.076-2.231-.2-3.161-.386zm5 .5-.376.329 14 16 .376-.329.377-.329-14-16zm14 16-.101-.49c-.02.004-3.917.808-6.435.991l.036.499.037.499c2.595-.19 6.557-1.008 6.564-1.009zm-6.5 1-.036-.499c-1.117.082-1.994-.036-2.936-.12-.941-.085-1.915-.133-3.133.13l.105.489.106.489c1.072-.232 1.929-.194 2.832-.113.901.082 1.879.212 3.099.123zm-6 0-.105-.489c-1.222.264-2.646.915-3.739 1.482a32 32 0 0 0-1.773.992l-.109.067-.029.018-.007.004-.002.002h-.001l.265.424.266.424v-.001h.002l.006-.004.025-.016.102-.063q.137-.083.386-.229c.33-.192.794-.454 1.328-.73 1.08-.56 2.406-1.158 3.491-1.392zm-5.5 2.5.353-.355-.001-.001-.003-.003-.012-.012-.048-.047-.185-.185-.685-.689a280 280 0 0 1-2.308-2.355c-1.832-1.89-4.073-4.256-5.732-6.18l-.379.327-.378.326c1.678 1.947 3.937 4.331 5.771 6.223a285 285 0 0 0 3.19 3.241l.048.048.013.012.003.003.001.001zm-9-9.5.379-.327c-3.065-3.554-7.453-9.439-7.478-9.472l-.401.299-.401.299c.021.027 4.43 5.941 7.523 9.527zm-7.5-9.5.477.149v.001-.001h.001l.001-.005.008-.023.03-.091q.04-.122.123-.34c.108-.287.269-.679.476-1.1.426-.868 1-1.755 1.652-2.168l-.268-.422-.267-.423c-.905.573-1.58 1.686-2.015 2.572a14 14 0 0 0-.647 1.558l-.035.104-.009.028-.003.008v.002l-.001.001zm-46.5 0 .013.5h.012l.035-.001.14-.003.519-.011c.442-.008 1.06-.017 1.761-.024 1.408-.013 3.148-.013 4.501.039l.02-.5.018-.5c-1.378-.052-3.138-.052-4.548-.039-.706.007-1.326.016-1.77.024l-.523.011-.14.003-.037.001h-.012zm7 0-.019.5c2.04.077 4.65.325 6.759.555a203 203 0 0 1 3.414.404l.209.027.054.007.013.002h.004l.001.001.065-.496.066-.496h-.005l-.014-.002-.055-.007-.211-.028-.781-.098c-.665-.081-1.594-.192-2.652-.308-2.113-.23-4.752-.482-6.829-.561zm10.5 1-.387.317 13.5 16.5.387-.317.387-.317-13.5-16.5zm13.5 16.5.046-.498-16.5-1.5-.046.498-.045.498 16.5 1.5zm-16.5-1.5.371-.336-14.5-16-.37.336-.371.336 14.5 16zm18-59 .098.49c1.089-.217 2.216.1 3.57.715.675.307 1.38.674 2.152 1.068a40 40 0 0 0 2.483 1.187l.197-.46.197-.46a40 40 0 0 1-2.423-1.157c-.758-.387-1.491-.77-2.192-1.088-1.395-.635-2.768-1.068-4.18-.785zm8.5 3-.197.46c1.62.694 3.789 1.201 5.529 1.535a56 56 0 0 0 2.865.47l.179.023.047.006.012.002h.004l.061-.496.061-.496h-.001l-.002-.001-.011-.001-.044-.006-.173-.022c-.15-.021-.37-.051-.643-.092a56 56 0 0 1-2.167-.369c-1.727-.331-3.808-.823-5.323-1.473zm8.5 2-.477.15c.013.039 2.742 8.69 5.017 14.045l.46-.195.46-.196c-2.253-5.303-4.968-13.906-4.983-13.954zm5 14-.46.195c1.203 2.832 2.961 6.346 4.413 9.145a273 273 0 0 0 2.405 4.528l.151.277.04.071.01.019.002.004.001.002.438-.241.438-.241v-.002l-.003-.004-.01-.018-.039-.071-.149-.274a267 267 0 0 1-2.396-4.511c-1.451-2.794-3.193-6.28-4.381-9.075zm7 14 .098-.49-10-2-.098.49-.098.49 10 2zm-10-2 .098-.49c-2.492-.499-4.506-.881-6.859.564l.261.426.262.426c1.986-1.219 3.633-.937 6.14-.436zm-6.5.5-.261-.426c-1.252.768-1.92 2.306-2.28 3.533a13.6 13.6 0 0 0-.452 2.297l-.004.04-.001.011v.004l.498.041.499.04v-.008l.003-.031.014-.126a12 12 0 0 1 .403-1.986c.349-1.191.931-2.403 1.843-2.963zm-2.5 5.5.442-.234-.001-.001-.002-.005-.011-.02-.041-.079-.16-.304a319 319 0 0 1-2.56-5.003c-1.551-3.097-3.42-6.959-4.705-10.046l-.462.192-.461.192c1.299 3.121 3.181 7.009 4.734 10.11a328 328 0 0 0 2.568 5.019l.161.306.042.079.011.021.002.005.001.001v.001zm-7.5-15.5.462-.192c-2.453-5.892-5.469-15.409-5.485-15.459l-.477.151-.476.151c.013.042 3.042 9.602 5.515 15.541zm-5.5-15.5.499.039v-.002l.001-.01.004-.042.017-.166c.016-.146.042-.355.081-.608.078-.508.208-1.186.414-1.875.207-.694.484-1.373.844-1.899.361-.527.772-.853 1.238-.947l-.098-.49-.098-.49c-.817.163-1.424.716-1.867 1.362s-.755 1.435-.977 2.177a15 15 0 0 0-.444 2.009 14 14 0 0 0-.106.833l-.005.05-.001.014v.005zm15.5-25-.5-.004c0 .027-.043 5.266.507 8.586l.493-.082.494-.082c-.534-3.219-.494-8.37-.494-8.414zm.5 8.5-.493.082c.253 1.526.76 3.425 1.199 4.929a90 90 0 0 0 .753 2.444l.049.15.013.039.004.01.001.003v.001l.474-.158.475-.158-.001-.001v-.002l-.003-.01-.013-.037-.048-.147-.176-.547a88 88 0 0 1-.568-1.867c-.437-1.497-.93-3.349-1.172-4.813zm2 7.5.173-.469-.002-.001-.007-.003-.026-.009-.101-.037-.371-.132a54 54 0 0 0-1.261-.427c-1.003-.327-2.277-.71-3.308-.913l-.097.491-.096.491c.969.19 2.195.557 3.192.881a59 59 0 0 1 1.602.55l.097.035.024.009.006.002.002.001zm-5-1.5.097-.491c-.992-.194-2.265-.321-3.278-.399-1.017-.078-1.793-.109-1.799-.11l-.02.5-.02.5s.762.03 1.762.107c1.006.078 2.23.201 3.162.384zm-5-.5.451.216.001-.001.001-.002.004-.01.018-.036.067-.141.253-.523c.215-.445.517-1.066.864-1.772a161 161 0 0 1 2.282-4.495l-.441-.236-.441-.236a168 168 0 0 0-2.298 4.526 303 303 0 0 0-1.12 2.303l-.068.142-.018.037-.004.009-.001.002-.001.001zm3.5-7 .441.236c1.474-2.756 3.971-6.951 3.989-6.98l-.43-.256-.429-.256c-.015.026-2.526 4.241-4.012 7.02zm-65-49-.039.498s.923.073 2.127.233c1.21.162 2.674.407 3.764.746l.148-.477.149-.477c-1.175-.366-2.708-.62-3.93-.783-1.227-.163-2.17-.238-2.18-.239zm6 1-.148.477c2.263.705 4.829 2.407 6.858 3.968a50 50 0 0 1 3.382 2.857l.048.045.012.011.002.003.001.001.345-.362.346-.362-.002-.001-.003-.003-.014-.013-.05-.048-.196-.182a51 51 0 0 0-3.26-2.738c-2.045-1.573-4.73-3.37-7.172-4.13zm10.5 7-.5-.011-.5 22 .5.011.5.011.5-22zm-.5 22 .27-.421v-.001h-.002l-.003-.002-.011-.008-.046-.029-.177-.111a115 115 0 0 0-2.895-1.757c-1.793-1.052-4.064-2.314-5.936-3.129l-.2.458-.2.458c1.815.79 4.044 2.028 5.83 3.075a112 112 0 0 1 2.868 1.741l.174.11.044.028.012.007.002.002h.001zm-9-5 .2-.458c-3.43-1.494-9.057-3.021-9.069-3.025l-.13.483-.132.482c.026.007 5.58 1.517 8.932 2.976zm-9-3 .5.008v-.019l.002-.056a129 129 0 0 1 .022-1.038c.016-.695.042-1.667.08-2.772.077-2.213.202-4.951.394-7.078l-.498-.045-.498-.045c-.195 2.156-.32 4.917-.397 7.134a263 263 0 0 0-.103 3.825l-.001.058v.019zm.5-11 .498.045c.388-4.283 1.488-10.92 1.496-10.963l-.494-.082-.493-.082c-.006.036-1.113 6.71-1.505 11.037zm120-117.5.053.497c2.199-.233 5.046-.234 7.359-.175a116 116 0 0 1 4.05.176h.005l.033-.498.034-.499h-.006l-.015-.001-.061-.004a60 60 0 0 0-1.095-.062c-.733-.037-1.756-.082-2.919-.112-2.321-.06-5.223-.06-7.49.18zm11.5 0-.158-.474c-.023.007-13.787 4.608-22.077 9.033l.235.44.236.442c8.203-4.378 21.884-8.954 21.923-8.967zm-22 9-.235-.441c-8.007 4.273-12.593 7.258-19.584 13.056l.319.385.319.385c6.934-5.75 11.463-8.7 19.417-12.944zm-19.5 13-.319-.385c-7.06 5.855-10.303 10.01-16.068 17.069l.387.316.388.316c5.769-7.063 8.956-11.146 15.931-16.931zm-16 17-.387-.316c-5.327 6.521-8.09 10.402-12.537 17.552l.424.264.425.264c4.425-7.114 7.164-10.96 12.463-17.448zm-12.5 17.5-.424-.264c-4.113 6.611-6.372 10.42-9.533 17.561l.457.203.458.202c3.134-7.08 5.365-10.843 9.467-17.438zm-9.5 17.5-.457-.203c-3.439 7.77-4.807 12.397-7.025 20.572l.482.13.483.132c2.212-8.154 3.565-12.727 6.975-20.429zm-7 20.5-.482-.131c-1.991 7.338-2.849 11.545-4.012 19.054l.494.077.494.076c1.158-7.477 2.009-11.647 3.989-18.945zm-4 19-.494-.077c-.633 4.09-1.134 9.355-1.477 13.59a389 389 0 0 0-.493 6.888l-.026.423-.007.11-.001.028-.001.007v.002l.499.029.499.029.001-.001v-.008l.002-.028.006-.109.026-.421a369 369 0 0 1 .492-6.869c.342-4.23.841-9.465 1.468-13.517zm-2 21-.035-.499-14 1 .035.499.036.499 14-1zm-14 1 .5-.005v-.157l-.003-.456a291 291 0 0 1 .08-7.419c.109-4.555.358-10.157.919-14.398l-.496-.065-.495-.066c-.569 4.297-.819 9.945-.928 14.505a291 291 0 0 0-.078 7.905l.001.12v.04zm1-22.5.496.065c1.144-8.649 2.438-13.123 4.822-21.366l-.48-.138-.48-.14c-2.388 8.252-3.7 12.786-4.853 21.513zm4.838-21.44.48.14.163-.561-.48-.14-.481-.138-.162.56zm.162-.56.48.139c2.427-8.387 4.425-12.905 7.967-20.912l-.457-.203-.458-.202c-3.544 8.013-5.566 12.583-8.012 21.039zm7.99-20.976.457.202.011-.025-.458-.201-.457-.201-.011.024zm.01-.024.458.202c3.798-8.587 6.655-13.138 11.956-20.92l-.414-.282-.413-.282c-5.318 7.809-8.212 12.416-12.044 21.08zm12-21 .414.281c5.587-8.204 9.193-12.64 16.428-19.416l-.342-.365-.341-.365c-7.298 6.836-10.95 11.33-16.572 19.583zm16.5-19.5.342.365c7.403-6.934 11.407-10.5 19.927-15.944l-.269-.421-.269-.421c-8.596 5.49-12.651 9.105-20.072 16.056zm20-16 .269.421c7.809-4.988 11.617-7.705 20.38-10.444l-.149-.477-.149-.477c-8.909 2.784-12.824 5.576-20.62 10.556zm20.5-10.5.149.477c4.41-1.378 7.396-2.501 11.904-2.98l-.053-.497-.052-.497c-4.632.492-7.733 1.656-12.097 3.02zM137.156 106l-.491-.095c-.004.02-1.416 7.307-2.005 12.033l.496.062.496.062c.584-4.687 1.99-11.94 1.995-11.967zm-2 12-.496-.062c-.292 2.347-.543 5.357-.72 7.775a298 298 0 0 0-.264 3.933l-.014.241-.004.063-.001.016v.005l.499.029.499.028.001-.001v-.004l.001-.015.003-.062.014-.24.056-.893c.048-.759.118-1.82.207-3.026.177-2.416.426-5.405.715-7.725zm-1 12-.048-.498c-.045.005-6.492.626-10.558 1.509l.106.489.106.489c3.998-.869 10.386-1.486 10.442-1.491zm-10.5 1.5-.106-.489c-2.32.504-5.215 1.386-7.519 2.137-1.155.377-2.165.722-2.887.973l-.849.298-.229.082-.059.021-.02.007-.001.001.17.47.171.47h.001l.003-.002.015-.005.058-.021.226-.08c.197-.07.484-.172.842-.296.718-.25 1.722-.593 2.869-.967 2.299-.749 5.154-1.618 7.421-2.11zm-11.5 3.5.5-.016c0-.013-.193-6.086 0-9.959l-.5-.025-.499-.025c-.195 3.922-.001 10.036 0 10.041zm0-10 .5.025c.193-3.89.993-9.937.996-9.959l-.496-.066-.495-.066c-.002.014-.808 6.103-1.004 10.041zm1-10 .303.398h.001l.003-.003.014-.011.057-.043.225-.166a78 78 0 0 1 3.747-2.587c2.354-1.524 5.312-3.246 7.814-4.116l-.164-.472-.164-.472c-2.622.911-5.664 2.689-8.029 4.22a79 79 0 0 0-3.798 2.622q-.151.111-.23.171l-.06.045-.015.011-.005.004h-.001v.001zm12-7 .164.472c2.184-.758 5.126-1.253 7.555-1.557a72 72 0 0 1 4.311-.416l-.03-.499-.029-.499c-.034.002-1.928.114-4.377.421-2.44.307-5.47.811-7.758 1.606zM75.57 73.21l-.11.489s.322.073.848.21c.527.138 1.256.34 2.07.598 1.643.52 3.584 1.253 4.92 2.123l.272-.42.273-.418c-1.455-.948-3.506-1.714-5.162-2.238a41 41 0 0 0-3-.83zm8 3-.273.42c1.496.974 3.08 2.674 4.31 4.163a43 43 0 0 1 2.013 2.646l.028.04.007.01.001.002v.001l.414-.281.414-.281-.001-.002-.002-.003-.008-.011-.03-.044-.115-.164a44 44 0 0 0-1.95-2.55c-1.24-1.502-2.905-3.302-4.535-4.364zm6.5 7-.484-.125-6.5 25 .484.126.484.126 6.5-25zm-6.5 25.001.326-.379v-.001l-.003-.002-.01-.009-.041-.035-.155-.131a103 103 0 0 0-2.55-2.084c-1.583-1.252-3.605-2.769-5.31-3.788l-.257.429-.256.429c1.647.984 3.626 2.467 5.204 3.714a104 104 0 0 1 2.523 2.063l.152.129.038.033.01.008.003.002v.001zm-8-6 .257-.429c-3.184-1.902-8.56-4.03-8.573-4.036l-.184.465-.184.465c.029.011 5.326 2.111 8.428 3.964zm-8.5-4 .484.128v-.001l.001-.005.005-.018.019-.07a146 146 0 0 1 .346-1.281c.234-.859.565-2.057.952-3.418.774-2.724 1.771-6.087 2.666-8.672l-.473-.163-.472-.164c-.904 2.612-1.908 5.999-2.683 8.726a331 331 0 0 0-1.326 4.804l-.002.004v.001zm4-13.5.473.163c1.567-4.526 4.471-11.428 4.488-11.47l-.46-.193-.462-.194c-.014.035-2.931 6.968-4.511 11.53zM148.156 73l-.46-.196c-.013.03-3.232 7.573-5.01 12.527l.47.169.471.169c1.766-4.921 4.974-12.437 4.989-12.473zm-5 12.5-.47-.169c-.87 2.423-1.873 5.556-2.657 8.08a410 410 0 0 0-1.251 4.107l-.075.252-.02.066-.005.017-.001.004v.001l.479.142.48.142v-.002l.001-.004.005-.016.019-.065.075-.251.28-.934c.24-.794.577-1.903.968-3.163.783-2.52 1.781-5.637 2.643-8.038zm-4 12.5-.027-.5c-.042.003-7.886.434-12.632 2.026l.159.474.159.474c4.595-1.54 12.298-1.97 12.369-1.975zm-12.5 2-.159-.474c-2.71.909-5.876 2.685-8.344 4.216a85 85 0 0 0-3.966 2.622l-.24.17-.062.045-.017.012-.004.003-.001.001.293.405.294.405.001-.001.004-.003.014-.01.06-.044.235-.166a84 84 0 0 1 3.917-2.589c2.456-1.524 5.54-3.248 8.134-4.118zm-12.5 7 .492.089v-.001l.001-.005.004-.017.012-.07.05-.272.191-1.01c.164-.858.398-2.056.679-3.417.563-2.724 1.31-6.083 2.052-8.659l-.481-.138-.48-.138c-.753 2.614-1.506 6.004-2.07 8.733a244 244 0 0 0-.874 4.446l-.05.274-.013.071-.004.019v.004l-.001.001v.001zm3-13.5.481.138c1.305-4.534 3.972-11.423 3.986-11.458l-.467-.18-.466-.18c-.01.026-2.694 6.957-4.014 11.542zm4-11.5.298.401h.001l.004-.003.016-.012.065-.047.252-.183a80 80 0 0 1 4.216-2.822c2.647-1.651 5.976-3.496 8.794-4.356l-.146-.478-.146-.478c-2.95.9-6.371 2.804-9.032 4.463a82 82 0 0 0-4.271 2.86q-.169.12-.258.187l-.067.049-.018.013-.004.003-.001.001h-.001zm13.5-7.5.146.478c2.47-.753 5.783-1.126 8.512-1.307 2.719-.182 4.817-.171 4.84-.171l.002-.5.003-.5c-.036 0-2.16-.01-4.912.173-2.742.183-6.151.56-8.737 1.349zM90.07 49.21l.112.488h.003l.011-.003.046-.01.182-.038a28 28 0 0 1 2.97-.432c1.832-.165 3.978-.152 5.489.46l.187-.464.188-.463c-1.747-.708-4.101-.696-5.954-.53a29 29 0 0 0-3.275.49l-.051.011-.014.003-.004.001h-.001zm9 0-.187.464c1.194.484 2.512 1.553 3.559 2.541a27 27 0 0 1 1.622 1.676l.094.108.024.027.005.006.002.002.381-.323.382-.323-.001-.001-.002-.002-.007-.009-.027-.03-.1-.116a28 28 0 0 0-1.687-1.742c-1.06-1.001-2.492-2.182-3.87-2.74zm5.5 4.5-.438-.24-11.5 21 .438.24.439.241 11.5-21zm-11.5 21 .413-.282-.001-.001-.002-.003-.008-.01-.027-.04a29 29 0 0 0-.507-.704 43 43 0 0 0-1.407-1.804c-1.147-1.39-2.685-3.062-4.181-4.07l-.28.415-.279.415c1.37.922 2.831 2.5 3.968 3.877a42 42 0 0 1 1.897 2.488l.002.002zm-6-6.5.28-.414c-1.364-.918-3.287-1.684-4.84-2.216a40 40 0 0 0-2.817-.854l-.123.485-.123.485.213.056a42 42 0 0 1 2.525.774c1.54.527 3.358 1.259 4.606 2.1zm-7.5-3 .45.22v-.001l.002-.003.006-.012.023-.047a79 79 0 0 1 .432-.868c.292-.581.705-1.39 1.188-2.303.967-1.83 2.207-4.061 3.314-5.706l-.415-.28-.414-.278c-1.138 1.69-2.399 3.96-3.37 5.796a129 129 0 0 0-1.633 3.199l-.024.048-.006.013-.002.003v.001zm5-9 .415.28c1.915-2.846 5.439-6.924 5.463-6.952l-.378-.327-.378-.327c-.017.02-3.581 4.142-5.536 7.048zM151.656 65l.032-.499c-.037-.002-2.163-.136-4.917-.077-2.744.059-6.161.31-8.76 1.097l.145.479.145.478c2.461-.745 5.764-.996 8.491-1.054a63 63 0 0 1 4.833.075zm-13.5 1-.145-.478c-2.821.854-6.116 2.632-8.682 4.177a82 82 0 0 0-4.375 2.832l-.065.045-.017.012-.004.004h-.002l.29.408.29.407h.001l.004-.003.016-.011.062-.044.244-.17a81 81 0 0 1 4.072-2.624c2.554-1.537 5.76-3.26 8.456-4.077zm-13 7 .464.187v-.001l.002-.004.006-.015.025-.06.096-.236c.085-.205.208-.503.365-.875.313-.742.757-1.777 1.282-2.944 1.051-2.34 2.416-5.191 3.688-7.293l-.428-.259-.428-.259c-1.305 2.157-2.69 5.055-3.744 7.401a141 141 0 0 0-1.757 4.087l-.026.062-.006.016-.002.004v.001zm5.5-11.5.428.259c2.356-3.893 6.925-9.4 6.957-9.44l-.385-.319-.384-.32c-.023.028-4.642 5.593-7.044 9.561zm7-9.5.023.5 22-1-.023-.5-.022-.5-22 1zm22-1-.434-.248-8 14 .434.248.434.248 8-14zM116.57 35.71l-.405-.291-9 12.5.405.292.406.292 9-12.5zm-9 12.5.32-.384h-.001l-.002-.002-.006-.005-.026-.021-.097-.08-.36-.29a52 52 0 0 0-1.236-.954c-.99-.74-2.266-1.635-3.36-2.206l-.232.443-.231.443c1.019.532 2.242 1.387 3.224 2.121.488.365.911.696 1.212.935l.351.283.094.077.023.02.006.004.002.001zm-5-3.5.232-.442c-1.5-.784-3.542-1.42-5.184-1.856-1.651-.44-2.94-.69-2.953-.692l-.095.49-.095.492c.002 0 1.265.245 2.886.676 1.63.434 3.581 1.047 4.978 1.776zm-8-2.5.374.333 8-9-.374-.332-.373-.332-8 9zm8-9-.088.493 14 2.5.088-.492.088-.492-14-2.5zM163.656 46v-.5h-22.5v1h22.5zm-22.5 0 .377.33 10.5-12-.377-.33-.376-.33-10.5 12zm10.5-12-.05.498h.011l.028.003.108.01q.143.013.399.032c.339.026.815.056 1.365.076 1.094.04 2.503.042 3.707-.124l-.068-.495-.068-.495c-1.117.153-2.458.154-3.534.115a36 36 0 0 1-1.814-.114l-.026-.003h-.008zm5.5 0 .068.495c2.201-.302 4.33-.679 6.505-1l-.073-.495-.073-.495c-2.229.33-4.284.696-6.495 1zm6.5-1 .073.495c2.678-.396 4.216-.495 6.927-.495v-1c-2.755 0-4.342.102-7.073.505zm7-.5v.5h6.5v-1h-6.5zm6.5 0-.353-.354-13.5 13.5.353.354.354.354 13.5-13.5zm-55.586-1.79v-.5h-16v1h16zm-16 0 .375.332.003-.003.01-.012.043-.047.165-.184c.145-.16.356-.393.623-.68a95 95 0 0 1 2.157-2.255c1.754-1.772 3.978-3.871 5.913-5.242l-.289-.408-.289-.408c-2.01 1.424-4.285 3.575-6.045 5.354a94 94 0 0 0-2.981 3.156l-.044.049-.011.013-.003.003-.001.001zm9-8.5.289.409c2.878-2.039 7.897-4.443 7.927-4.457l-.216-.451-.216-.451c-.014.007-5.113 2.446-8.073 4.543zm8-4.5v.5h14v-1h-14zm14 0-.327-.377-15 13 .327.378.328.378 15-13zM177.156 13l.05.498h.002l.008-.002.032-.003.126-.012.487-.044a166 166 0 0 1 7.815-.5c4.749-.187 10.449-.184 14.388.554l.092-.491.092-.491c-4.06-.762-9.86-.759-14.611-.571a167 167 0 0 0-8.358.548l-.128.012-.033.003-.008.001h-.003zm23 0-.092.491c1.99.373 3.237.71 3.992 1 .378.144.612.269.75.367.145.103.133.14.119.092a.2.2 0 0 1 .018-.148l-.001.003-.006.006-.024.02a1 1 0 0 1-.084.056 1.5 1.5 0 0 1-.289.126l-.018.006h-.003q-.002 0 0 0l.138.481.138.48h.002l.004-.001.011-.003.037-.012.12-.042c.095-.036.227-.092.36-.169.127-.073.29-.185.412-.346a.82.82 0 0 0 .147-.732c-.076-.267-.275-.472-.502-.632-.233-.166-.554-.327-.972-.487-.839-.32-2.154-.67-4.165-1.047zm4.5 2.5-.181-.466c-.033.013-3.718 1.447-6.028 2.512l.209.454.21.454c2.277-1.05 5.933-2.473 5.972-2.488zm-6 2.5-.209-.454c-1.987.916-3.111 1.446-5.034 2.517l.243.437.244.437c1.89-1.053 2.987-1.571 4.966-2.483zm-5 2.5-.243-.437c-1.99 1.109-4.384 2.747-6.271 4.101a134 134 0 0 0-3.227 2.39l-.048.038-.012.01-.004.002h-.001l.306.396.306.395h.001l.003-.003.012-.008.047-.037.182-.14c.159-.12.391-.297.682-.515.581-.437 1.398-1.042 2.336-1.715 1.881-1.35 4.237-2.961 6.175-4.04zm-9.5 6.5.095-.49c-.034-.008-4.283-.828-7.062-1.009l-.033.499-.032.499c2.705.176 6.891.983 6.937.992zm-7-1 .033-.499c-2.36-.154-3.706-.154-6.065 0l.032.499.033.499c2.316-.151 3.618-.151 5.935 0zm-6 0-.032-.499c-2.785.182-4.352.433-7.072 1.01l.104.489.104.49c2.683-.57 4.202-.813 6.929-.991zm-7 1-.104-.49c-1.412.3-3.179.806-4.584 1.233a114 114 0 0 0-2.421.766l-.036.012-.01.004h-.003l.158.475.159.474h.003l.008-.004.036-.011.137-.046a102 102 0 0 1 2.26-.713c1.4-.426 3.133-.92 4.501-1.21zm-7 2 .338.368h.001l.001-.001.006-.006.023-.02.088-.082.33-.301c.281-.256.675-.613 1.124-1.017.9-.81 2.02-1.806 2.912-2.56l-.323-.381-.322-.382c-.905.764-2.035 1.768-2.936 2.58-.451.405-.846.764-1.128 1.02l-.332.303-.089.082-.023.021-.006.006-.001.001h-.001zm4.5-4 .323.382c1.901-1.606 3.011-2.446 4.985-3.988l-.308-.394-.308-.394c-1.967 1.536-3.095 2.39-5.014 4.012zm5-4 .308.394c2.029-1.585 3.187-2.428 5.245-3.996l-.303-.398-.303-.398c-2.042 1.556-3.221 2.415-5.255 4.004zm5.25-4 .303.398 5.25-4-.303-.398-.303-.398-5.25 4zm48-16.5V1c3.792 0 6.415.182 10.209.498l.041-.498.042-.498C226.393.185 223.739 0 219.906 0zm10.25.5-.041.498c5.892.491 8.716.642 14.426 1.989l.115-.487.115-.487c-5.793-1.366-8.687-1.52-14.573-2.011zm14.5 2-.115.487c5.795 1.366 8.976 2.514 14.409 4.969l.206-.456.206-.456c-5.483-2.477-8.726-3.647-14.591-5.03zm14.5 5-.206.456c5.045 2.279 12.386 6.933 12.438 6.966l.268-.422.268-.422c-.04-.026-7.441-4.72-12.562-7.034zm12.5 7 .193-.462c-.04-.016-5.744-2.392-9.551-3.517l-.142.479-.142.48c3.747 1.107 9.401 3.461 9.45 3.482zm-9.5-3.5.142-.48c-3.291-.973-5.185-1.388-8.551-2.012l-.091.492-.091.492c3.341.618 5.2 1.027 8.449 1.987zm-8.5-2 .091-.492c-5.616-1.04-8.857-1.48-14.588-1.508l-.003.5-.002.5c5.654.027 8.832.458 14.411 1.492zm-14.5-1.5.003-.5c-4.933-.023-7.714.328-12.572 1.005l.069.495.069.495c4.843-.674 7.568-1.018 12.429-.995zm-12.5 1-.069-.495c-2.083.29-4.721.792-6.831 1.22a231 231 0 0 0-3.426.724l-.21.047-.054.012-.014.003h-.004l-.001.001.109.488.109.488h.001l.004-.001.013-.003.054-.012.208-.046a212 212 0 0 1 3.41-.72c2.107-.428 4.719-.925 6.77-1.21zm-10.5 2 .343-.364c-.016-.015-.591-.555-1.383-1.204-.786-.642-1.815-1.417-2.735-1.879l-.225.447-.224.447c.816.41 1.775 1.125 2.55 1.76.768.628 1.325 1.151 1.332 1.157zm-4-3 .225-.447c-2.247-1.129-3.782-1.238-6.16-1.549l-.065.496-.065.496c2.412.315 3.772.411 5.841 1.45zm-6-1.5.065-.496c-2.762-.361-4.406-.075-7.078-.004l.013.5.014.5c2.793-.074 4.263-.352 6.921-.004zm-7 0-.013-.5c-1.673.045-3.806.17-5.517.284a282 282 0 0 0-2.779.2l-.171.013-.044.003-.012.001h-.003l.039.499.04.498h.015q.014-.003.043-.004l.17-.013.63-.048c.536-.04 1.286-.094 2.139-.151 1.708-.114 3.825-.238 5.477-.282zm-8.5.5.235.442h.001l.002-.002.011-.006.045-.024.174-.09a95 95 0 0 1 2.873-1.43c1.788-.854 4.012-1.842 5.811-2.414L199.656 3l-.151-.476c-1.867.593-4.143 1.606-5.938 2.462a96 96 0 0 0-2.905 1.447l-.178.092-.046.025-.015.008h-.001zm9-4 .152.476c3.927-1.249 6.261-1.494 10.406-1.98L210.156 1l-.058-.497c-4.146.486-6.565.74-10.593 2.02zm10.5-2 .058.497c3.761-.44 5.891-.497 9.692-.497V0c-3.823 0-5.995.057-9.808.503zm-43.586.21-.213-.451c-.025.011-7.04 3.315-11.507 5.503l.22.449.22.449c4.459-2.184 11.467-5.484 11.493-5.497zm-11.5 5.5-.22-.448a787 787 0 0 0-6.475 3.222 1415 1415 0 0 0-3.461 1.746l-.052.026-.013.007-.004.001h-.001l.226.447.226.446h.001l.004-.002.013-.007.051-.026.2-.101.742-.375 2.517-1.268c2.01-1.01 4.508-2.259 6.466-3.218zm-10 5 .02-.499-12.5-.5-.02.5-.02.5 12.5.5zm-12.5-.5.21.455h.001l.005-.003.021-.01.084-.038.322-.147c.282-.127.691-.312 1.204-.54a217 217 0 0 1 4.105-1.77c3.292-1.38 7.396-2.996 10.69-3.966l-.142-.48-.141-.48c-3.349.987-7.495 2.621-10.793 4.003a218 218 0 0 0-5.336 2.323l-.325.148-.085.038-.021.01-.006.003h-.002zm16.5-6.5.142.48c6.638-1.956 17.402-3.48 17.428-3.484l-.07-.495-.07-.495c-.012.002-10.85 1.535-17.571 3.515zM292.726 202.5v-74.24h13.824v74.24zm0-84.736V103.94h13.824v13.824zm29 84.736v-57.6q0-4.608 2.304-8.32a18.4 18.4 0 0 1 6.016-6.016 15.9 15.9 0 0 1 8.32-2.304h41.472v13.824H338.75q-1.28 0-2.304 1.024a2.96 2.96 0 0 0-.896 2.176V202.5zm83.137 0q-4.608 0-8.32-2.304a18.4 18.4 0 0 1-6.016-6.016q-2.304-3.712-2.304-8.32V144.9q0-4.608 2.304-8.32a18.4 18.4 0 0 1 6.016-6.016q3.712-2.304 8.32-2.304h42.24q4.608 0 8.32 2.304a15.67 15.67 0 0 1 6.016 6.016 15.9 15.9 0 0 1 2.304 8.32v27.392h-61.696v13.184q0 1.28.896 2.304 1.024.896 2.304.896h58.496V202.5zm-2.816-43.136h47.744v-14.08q0-1.28-.896-2.176-.895-1.024-2.176-1.024h-41.472q-1.28 0-2.304 1.024a2.96 2.96 0 0 0-.896 2.176z" fill="#000"/>
  <path d="M496.622 202.5q-4.608 0-8.448-2.176a18.4 18.4 0 0 1-6.016-6.016q-2.175-3.84-2.176-8.448v-58.88q0-4.608 2.176-8.32 2.304-3.84 6.016-6.016 3.84-2.304 8.448-2.304h58.88q4.48 0 8.32 2.304a15.67 15.67 0 0 1 6.016 6.016q2.304 3.712 2.304 8.32v58.88q0 4.608-2.304 8.448-2.176 3.712-6.016 6.016-3.84 2.176-8.32 2.176zm.384-13.824h58.112q1.28 0 2.176-.896.896-1.024.896-2.304v-58.112q0-1.28-.896-2.176-.895-1.024-2.176-1.024h-58.112q-1.28 0-2.304 1.024a2.96 2.96 0 0 0-.896 2.176v58.112q0 1.28.896 2.304 1.024.896 2.304.896m88.976 43.264V128.26h58.88q4.608 0 8.32 2.304 3.84 2.304 6.016 6.016 2.304 3.712 2.304 8.32v40.96q0 4.608-2.304 8.32-2.176 3.712-6.016 6.016-3.712 2.304-8.32 2.304h-45.056v29.44zm17.024-43.264h41.472q1.28 0 2.176-.896 1.024-1.024 1.024-2.304v-40.192q0-1.28-1.024-2.176-.895-1.024-2.176-1.024h-41.472q-1.28 0-2.304 1.024a2.96 2.96 0 0 0-.896 2.176v40.192q0 1.28.896 2.304 1.024.896 2.304.896m84.598 13.824q-4.608 0-8.32-2.304a18.4 18.4 0 0 1-6.016-6.016q-2.304-3.712-2.304-8.32v-1.92h13.824v1.536q0 1.28.896 2.304 1.024.896 2.304.896h41.472q1.28 0 2.176-.896.896-1.024.896-2.304v-9.984q0-1.28-.896-2.176-.895-1.024-2.176-1.024h-41.856q-4.608 0-8.32-2.176a18.4 18.4 0 0 1-6.016-6.016q-2.304-3.84-2.304-8.448V144.9q0-4.608 2.304-8.32a18.4 18.4 0 0 1 6.016-6.016q3.712-2.304 8.32-2.304h42.24q4.608 0 8.32 2.304 3.84 2.304 6.016 6.016 2.304 3.712 2.304 8.32v1.92h-13.952v-1.536q0-1.28-.896-2.176-.895-1.024-2.176-1.024h-41.472q-1.28 0-2.304 1.024a2.96 2.96 0 0 0-.896 2.176v9.984q0 1.28.896 2.304 1.024.896 2.304.896h41.856q4.608 0 8.32 2.304a15.67 15.67 0 0 1 6.016 6.016q2.304 3.712 2.304 8.32v10.752q0 4.608-2.304 8.32-2.176 3.712-6.016 6.016-3.712 2.304-8.32 2.304z" fill="#bddd2f"/>
  <defs>
    <linearGradient id="a" x1="171.363" y1=".5" x2="171.363" y2="255.269" gradientUnits="userSpaceOnUse">
      <stop stop-color="#666"/>
      <stop offset=".505"/>
    </linearGradient>
  </defs>
</svg>
